# xmcd CD database file
#
# Track frame offsets:
#	150
#	34612
#	55412
#	80772
#	113565
#	142092
#	159922
#
# Disc length: 2413 seconds
#
# Revision: 1
# Processed by: cddbd v1.5.1PL0 Copyright (c) Steve Scherf et al.
# Submitted via: CDex 1.51
#
DISCID=56096b07
DTITLE=Various Artist - AfternoonTea ?
DYEAR=1994
DGENRE=New Age
TTITLE0=永遠の楽園(辛島美登里)
TTITLE1=レモンとパラソル(溝口肇)
TTITLE2=カモミール・ティー(梶浦由記)
TTITLE3=ルブニール〜再会〜(辛島美登里)
TTITLE4=ハート・ビート(溝口肇)
TTITLE5=祈りの日(溝口肇)
TTITLE6=ステアウェイ・トゥ・ニュー・ムーン(岩代太郎)
EXTD=YEAR: 1994
EXTT0=
EXTT1=
EXTT2=
EXTT3=
EXTT4=
EXTT5=
EXTT6=
PLAYORDER=
